<mxfile host="app.diagrams.net" modified="2022-01-19T05:35:40.581Z" agent="5.0 (Windows NT 6.1; Win64; x64) AppleWebKit/537.36 (KHTML, like Gecko) Chrome/97.0.4692.71 Safari/537.36" etag="v1ZgiC9v67QtZ_hCI20l" version="16.2.7" type="github" pages="4">
  <diagram id="PkWH7Ox4abNmgLV9kK4M" name="Page-1">
    <mxGraphModel dx="1422" dy="789" grid="1" gridSize="10" guides="1" tooltips="1" connect="1" arrows="1" fold="1" page="1" pageScale="1" pageWidth="850" pageHeight="1100" math="0" shadow="0">
      <root>
        <mxCell id="0" />
        <mxCell id="1" parent="0" />
        <mxCell id="LcC1mPSyVU-vqVYWDgpe-1" value="RMDSDK" style="rounded=1;whiteSpace=wrap;html=1;" vertex="1" parent="1">
          <mxGeometry x="350" y="190" width="210" height="60" as="geometry" />
        </mxCell>
        <mxCell id="LcC1mPSyVU-vqVYWDgpe-2" value="nxrmserv.exe" style="rounded=1;whiteSpace=wrap;html=1;" vertex="1" parent="1">
          <mxGeometry x="350" y="300" width="210" height="60" as="geometry" />
        </mxCell>
        <mxCell id="LcC1mPSyVU-vqVYWDgpe-3" value="nxrmfltman.dll" style="rounded=1;whiteSpace=wrap;html=1;" vertex="1" parent="1">
          <mxGeometry x="350" y="400" width="210" height="60" as="geometry" />
        </mxCell>
      </root>
    </mxGraphModel>
  </diagram>
  <diagram id="ip0UcCe4yA8JJcOuvnaW" name="Page-2">
    <mxGraphModel dx="1422" dy="789" grid="1" gridSize="10" guides="1" tooltips="1" connect="1" arrows="1" fold="1" page="1" pageScale="1" pageWidth="850" pageHeight="1100" math="0" shadow="0">
      <root>
        <mxCell id="vjBUhOPTi7787azV6_4f-0" />
        <mxCell id="vjBUhOPTi7787azV6_4f-1" parent="vjBUhOPTi7787azV6_4f-0" />
        <mxCell id="vjBUhOPTi7787azV6_4f-3" value="" style="aspect=fixed;html=1;points=[];align=center;image;fontSize=12;image=img/lib/azure2/security/Application_Security_Groups.svg;" vertex="1" parent="vjBUhOPTi7787azV6_4f-1">
          <mxGeometry x="170" y="200" width="56.00000000000001" height="68" as="geometry" />
        </mxCell>
        <mxCell id="vjBUhOPTi7787azV6_4f-4" value="" style="sketch=0;aspect=fixed;pointerEvents=1;shadow=0;dashed=0;html=1;strokeColor=none;labelPosition=center;verticalLabelPosition=bottom;verticalAlign=top;align=center;fillColor=#00188D;shape=mxgraph.mscae.enterprise.application" vertex="1" parent="vjBUhOPTi7787azV6_4f-1">
          <mxGeometry x="580" y="200" width="92.65" height="63" as="geometry" />
        </mxCell>
        <mxCell id="vjBUhOPTi7787azV6_4f-5" value="" style="endArrow=none;dashed=1;html=1;rounded=0;" edge="1" parent="vjBUhOPTi7787azV6_4f-1">
          <mxGeometry width="50" height="50" relative="1" as="geometry">
            <mxPoint x="40" y="400" as="sourcePoint" />
            <mxPoint x="800" y="400" as="targetPoint" />
          </mxGeometry>
        </mxCell>
        <mxCell id="vjBUhOPTi7787azV6_4f-6" value="&lt;font style=&quot;font-size: 14px&quot;&gt;Kernel&lt;/font&gt;" style="edgeLabel;html=1;align=center;verticalAlign=middle;resizable=0;points=[];" vertex="1" connectable="0" parent="vjBUhOPTi7787azV6_4f-5">
          <mxGeometry x="-0.8763" relative="1" as="geometry">
            <mxPoint as="offset" />
          </mxGeometry>
        </mxCell>
        <mxCell id="vjBUhOPTi7787azV6_4f-7" value="" style="rounded=1;whiteSpace=wrap;html=1;fontSize=14;" vertex="1" parent="vjBUhOPTi7787azV6_4f-1">
          <mxGeometry x="80" y="480" width="680" height="120" as="geometry" />
        </mxCell>
        <mxCell id="vjBUhOPTi7787azV6_4f-8" value="IRP Handler" style="rounded=1;whiteSpace=wrap;html=1;fontSize=14;" vertex="1" parent="vjBUhOPTi7787azV6_4f-1">
          <mxGeometry x="270" y="490" width="120" height="60" as="geometry" />
        </mxCell>
        <mxCell id="vjBUhOPTi7787azV6_4f-9" value="RPM Folder Info" style="rounded=1;whiteSpace=wrap;html=1;fontSize=14;" vertex="1" parent="vjBUhOPTi7787azV6_4f-1">
          <mxGeometry x="520" y="490" width="120" height="60" as="geometry" />
        </mxCell>
      </root>
    </mxGraphModel>
  </diagram>
  <diagram id="dHhwQlEQKpOCZlmcN0p0" name="Page-3">
    <mxGraphModel dx="1422" dy="789" grid="1" gridSize="10" guides="1" tooltips="1" connect="1" arrows="1" fold="1" page="1" pageScale="1" pageWidth="850" pageHeight="1100" math="0" shadow="0">
      <root>
        <mxCell id="e9VGIvDszXq3-oWT3gsq-0" />
        <mxCell id="e9VGIvDszXq3-oWT3gsq-1" parent="e9VGIvDszXq3-oWT3gsq-0" />
        <mxCell id="e9VGIvDszXq3-oWT3gsq-2" value="" style="rounded=1;whiteSpace=wrap;html=1;fontSize=14;" vertex="1" parent="e9VGIvDszXq3-oWT3gsq-1">
          <mxGeometry x="150" y="150" width="530" height="90" as="geometry" />
        </mxCell>
        <mxCell id="e9VGIvDszXq3-oWT3gsq-4" value="" style="rounded=1;whiteSpace=wrap;html=1;fontSize=14;" vertex="1" parent="e9VGIvDszXq3-oWT3gsq-1">
          <mxGeometry x="150" y="280" width="530" height="90" as="geometry" />
        </mxCell>
      </root>
    </mxGraphModel>
  </diagram>
  <diagram id="zdNNGRGcw-xqSDVXyfAn" name="Page-4">
    <mxGraphModel dx="1422" dy="789" grid="1" gridSize="10" guides="1" tooltips="1" connect="1" arrows="1" fold="1" page="1" pageScale="1" pageWidth="850" pageHeight="1100" math="0" shadow="0">
      <root>
        <mxCell id="a4oGg-lwztcVajg8Xu71-0" />
        <mxCell id="a4oGg-lwztcVajg8Xu71-1" parent="a4oGg-lwztcVajg8Xu71-0" />
        <mxCell id="a4oGg-lwztcVajg8Xu71-15" value="nxrmserv" style="shape=umlLifeline;perimeter=lifelinePerimeter;whiteSpace=wrap;html=1;container=1;collapsible=0;recursiveResize=0;outlineConnect=0;fontSize=14;" vertex="1" parent="a4oGg-lwztcVajg8Xu71-1">
          <mxGeometry x="213" y="60" width="88" height="500" as="geometry" />
        </mxCell>
        <mxCell id="a4oGg-lwztcVajg8Xu71-21" value="" style="html=1;points=[];perimeter=orthogonalPerimeter;fontSize=14;" vertex="1" parent="a4oGg-lwztcVajg8Xu71-15">
          <mxGeometry x="39" y="104" width="10" height="356" as="geometry" />
        </mxCell>
        <mxCell id="a4oGg-lwztcVajg8Xu71-26" value="" style="html=1;points=[];perimeter=orthogonalPerimeter;fontSize=14;" vertex="1" parent="a4oGg-lwztcVajg8Xu71-15">
          <mxGeometry x="44" y="141" width="10" height="40" as="geometry" />
        </mxCell>
        <mxCell id="a4oGg-lwztcVajg8Xu71-27" value="self call" style="edgeStyle=orthogonalEdgeStyle;html=1;align=left;spacingLeft=2;endArrow=block;rounded=0;entryX=1;entryY=0;fontSize=14;" edge="1" parent="a4oGg-lwztcVajg8Xu71-15">
          <mxGeometry relative="1" as="geometry">
            <mxPoint x="49" y="121" as="sourcePoint" />
            <Array as="points">
              <mxPoint x="79" y="121" />
            </Array>
            <mxPoint x="55" y="141" as="targetPoint" />
          </mxGeometry>
        </mxCell>
        <mxCell id="a4oGg-lwztcVajg8Xu71-16" value="rmdsdk" style="shape=umlLifeline;perimeter=lifelinePerimeter;whiteSpace=wrap;html=1;container=1;collapsible=0;recursiveResize=0;outlineConnect=0;fontSize=14;" vertex="1" parent="a4oGg-lwztcVajg8Xu71-1">
          <mxGeometry x="73" y="60" width="88" height="500" as="geometry" />
        </mxCell>
        <mxCell id="a4oGg-lwztcVajg8Xu71-20" value="" style="html=1;points=[];perimeter=orthogonalPerimeter;fontSize=14;" vertex="1" parent="a4oGg-lwztcVajg8Xu71-16">
          <mxGeometry x="39" y="90" width="10" height="370" as="geometry" />
        </mxCell>
        <mxCell id="a4oGg-lwztcVajg8Xu71-24" value="Enable" style="html=1;verticalAlign=bottom;endArrow=block;rounded=0;fontSize=14;" edge="1" parent="a4oGg-lwztcVajg8Xu71-16">
          <mxGeometry width="80" relative="1" as="geometry">
            <mxPoint x="-41" y="100" as="sourcePoint" />
            <mxPoint x="39" y="100" as="targetPoint" />
          </mxGeometry>
        </mxCell>
        <mxCell id="a4oGg-lwztcVajg8Xu71-17" value="nxrmdrvlib" style="shape=umlLifeline;perimeter=lifelinePerimeter;whiteSpace=wrap;html=1;container=1;collapsible=0;recursiveResize=0;outlineConnect=0;fontSize=14;" vertex="1" parent="a4oGg-lwztcVajg8Xu71-1">
          <mxGeometry x="353" y="60" width="88" height="500" as="geometry" />
        </mxCell>
        <mxCell id="a4oGg-lwztcVajg8Xu71-28" value="" style="html=1;points=[];perimeter=orthogonalPerimeter;fontSize=14;" vertex="1" parent="a4oGg-lwztcVajg8Xu71-17">
          <mxGeometry x="39" y="206" width="10" height="254" as="geometry" />
        </mxCell>
        <mxCell id="a4oGg-lwztcVajg8Xu71-18" value="nxrmfltman" style="shape=umlLifeline;perimeter=lifelinePerimeter;whiteSpace=wrap;html=1;container=1;collapsible=0;recursiveResize=0;outlineConnect=0;fontSize=14;" vertex="1" parent="a4oGg-lwztcVajg8Xu71-1">
          <mxGeometry x="496" y="60" width="88" height="500" as="geometry" />
        </mxCell>
        <mxCell id="a4oGg-lwztcVajg8Xu71-30" value="" style="html=1;points=[];perimeter=orthogonalPerimeter;fontSize=14;" vertex="1" parent="a4oGg-lwztcVajg8Xu71-18">
          <mxGeometry x="39" y="229" width="10" height="231" as="geometry" />
        </mxCell>
        <mxCell id="a4oGg-lwztcVajg8Xu71-33" value="" style="html=1;points=[];perimeter=orthogonalPerimeter;fontSize=14;" vertex="1" parent="a4oGg-lwztcVajg8Xu71-18">
          <mxGeometry x="45" y="260" width="10" height="40" as="geometry" />
        </mxCell>
        <mxCell id="a4oGg-lwztcVajg8Xu71-34" value="self call" style="edgeStyle=orthogonalEdgeStyle;html=1;align=left;spacingLeft=2;endArrow=block;rounded=0;entryX=1;entryY=0;fontSize=14;" edge="1" target="a4oGg-lwztcVajg8Xu71-33" parent="a4oGg-lwztcVajg8Xu71-18">
          <mxGeometry relative="1" as="geometry">
            <mxPoint x="50" y="240" as="sourcePoint" />
            <Array as="points">
              <mxPoint x="80" y="240" />
            </Array>
          </mxGeometry>
        </mxCell>
        <mxCell id="a4oGg-lwztcVajg8Xu71-19" value="nxrmflt" style="shape=umlLifeline;perimeter=lifelinePerimeter;whiteSpace=wrap;html=1;container=1;collapsible=0;recursiveResize=0;outlineConnect=0;fontSize=14;" vertex="1" parent="a4oGg-lwztcVajg8Xu71-1">
          <mxGeometry x="633" y="60" width="88" height="500" as="geometry" />
        </mxCell>
        <mxCell id="a4oGg-lwztcVajg8Xu71-32" value="" style="html=1;points=[];perimeter=orthogonalPerimeter;fontSize=14;" vertex="1" parent="a4oGg-lwztcVajg8Xu71-19">
          <mxGeometry x="39" y="326" width="10" height="136" as="geometry" />
        </mxCell>
        <mxCell id="a4oGg-lwztcVajg8Xu71-25" value="insert_dir" style="html=1;verticalAlign=bottom;endArrow=block;rounded=0;fontSize=14;" edge="1" parent="a4oGg-lwztcVajg8Xu71-1">
          <mxGeometry width="80" relative="1" as="geometry">
            <mxPoint x="122" y="171" as="sourcePoint" />
            <mxPoint x="253" y="171" as="targetPoint" />
          </mxGeometry>
        </mxCell>
        <mxCell id="a4oGg-lwztcVajg8Xu71-29" value="manage_safe_directory" style="html=1;verticalAlign=bottom;endArrow=block;rounded=0;fontSize=14;" edge="1" parent="a4oGg-lwztcVajg8Xu71-1">
          <mxGeometry width="80" relative="1" as="geometry">
            <mxPoint x="263" y="268" as="sourcePoint" />
            <mxPoint x="392" y="268" as="targetPoint" />
          </mxGeometry>
        </mxCell>
        <mxCell id="a4oGg-lwztcVajg8Xu71-31" value="ManageSafeDir" style="html=1;verticalAlign=bottom;endArrow=block;rounded=0;fontSize=14;" edge="1" parent="a4oGg-lwztcVajg8Xu71-1">
          <mxGeometry width="80" relative="1" as="geometry">
            <mxPoint x="403" y="294" as="sourcePoint" />
            <mxPoint x="535" y="294" as="targetPoint" />
          </mxGeometry>
        </mxCell>
        <mxCell id="a4oGg-lwztcVajg8Xu71-35" value="nxrmfltManageSafeDir" style="html=1;verticalAlign=bottom;endArrow=block;rounded=0;fontSize=14;" edge="1" parent="a4oGg-lwztcVajg8Xu71-1">
          <mxGeometry width="80" relative="1" as="geometry">
            <mxPoint x="545" y="387" as="sourcePoint" />
            <mxPoint x="672" y="387" as="targetPoint" />
          </mxGeometry>
        </mxCell>
        <mxCell id="a4oGg-lwztcVajg8Xu71-38" value="" style="html=1;points=[];perimeter=orthogonalPerimeter;fontSize=14;" vertex="1" parent="a4oGg-lwztcVajg8Xu71-1">
          <mxGeometry x="677" y="419" width="10" height="40" as="geometry" />
        </mxCell>
        <mxCell id="a4oGg-lwztcVajg8Xu71-39" value="update rpm info" style="edgeStyle=orthogonalEdgeStyle;html=1;align=left;spacingLeft=2;endArrow=block;rounded=0;entryX=1;entryY=0;fontSize=14;" edge="1" target="a4oGg-lwztcVajg8Xu71-38" parent="a4oGg-lwztcVajg8Xu71-1">
          <mxGeometry relative="1" as="geometry">
            <mxPoint x="682" y="399" as="sourcePoint" />
            <Array as="points">
              <mxPoint x="712" y="399" />
            </Array>
          </mxGeometry>
        </mxCell>
        <mxCell id="a4oGg-lwztcVajg8Xu71-40" value="return" style="html=1;verticalAlign=bottom;endArrow=open;dashed=1;endSize=8;rounded=0;fontSize=14;" edge="1" parent="a4oGg-lwztcVajg8Xu71-1">
          <mxGeometry relative="1" as="geometry">
            <mxPoint x="671.5" y="493" as="sourcePoint" />
            <mxPoint x="545" y="493" as="targetPoint" />
          </mxGeometry>
        </mxCell>
        <mxCell id="a4oGg-lwztcVajg8Xu71-41" value="return" style="html=1;verticalAlign=bottom;endArrow=open;dashed=1;endSize=8;rounded=0;fontSize=14;" edge="1" parent="a4oGg-lwztcVajg8Xu71-1">
          <mxGeometry relative="1" as="geometry">
            <mxPoint x="533" y="499" as="sourcePoint" />
            <mxPoint x="402" y="499" as="targetPoint" />
          </mxGeometry>
        </mxCell>
        <mxCell id="a4oGg-lwztcVajg8Xu71-42" value="return" style="html=1;verticalAlign=bottom;endArrow=open;dashed=1;endSize=8;rounded=0;fontSize=14;" edge="1" parent="a4oGg-lwztcVajg8Xu71-1">
          <mxGeometry relative="1" as="geometry">
            <mxPoint x="392" y="504" as="sourcePoint" />
            <mxPoint x="261" y="504" as="targetPoint" />
          </mxGeometry>
        </mxCell>
        <mxCell id="a4oGg-lwztcVajg8Xu71-43" value="return" style="html=1;verticalAlign=bottom;endArrow=open;dashed=1;endSize=8;rounded=0;fontSize=14;" edge="1" parent="a4oGg-lwztcVajg8Xu71-1">
          <mxGeometry relative="1" as="geometry">
            <mxPoint x="251" y="512" as="sourcePoint" />
            <mxPoint x="122" y="512" as="targetPoint" />
          </mxGeometry>
        </mxCell>
      </root>
    </mxGraphModel>
  </diagram>
</mxfile>
